<svg version="1.1" xmlns="http://www.w3.org/2000/svg" viewBox="0 0 2048 912" width="642" height="286" preserveAspectRatio="xMidYMid meet"><defs><linearGradient id="a" gradientUnits="userSpaceOnUse" x1="1652.57" y1="798.056" x2="1609.23" y2="700.054"><stop class="stop0" offset="0" stop-opacity="1" stop-color="#848382" data-c-stop-color="848382" data-o-stop-color="1"/><stop class="stop1" offset="1" stop-opacity="1" stop-color="#9c9b9b" data-c-stop-color="9c9b9b" data-o-stop-color="1"/></linearGradient></defs><path fill="#82ac57" d="M 295.017 93.9289 C 347.153 95.1875 403.236 94.1092 455.789 94.1595 C 454.114 121.118 451.775 152.774 472.1 173.397 C 482.907 184.326 497.62 190.5 512.99 190.556 C 528.549 190.559 541.4 184.547 552.549 173.808 C 573.734 153.404 570.043 121.937 569.882 94.1748 C 604.177 94.1513 640.195 89.8228 666.385 116.634 C 693.229 144.115 689.231 176.279 689.071 211.596 L 688.965 284.499 L 689.044 571.166 C 689.502 603.658 693.868 640.039 672.288 665.968 C 660.99 679.543 640.256 692.473 622.703 693.481 C 594.438 695.104 564.284 694.367 535.881 694.312 L 378.061 694.295 L 216.309 694.269 C 187.805 694.306 157.841 695.235 129.647 693.432 C 94.3125 690.414 65.2013 661.697 63.1636 626.199 C 61.345 594.516 62.1088 563.424 62.138 531.961 L 62.1652 363.364 L 62.0094 231.751 C 62.0027 213.879 61.1503 176.642 63.3158 160.533 C 65.1979 146.055 71.1871 132.419 80.5751 121.238 C 95.1044 103.794 112.479 96.4592 134.742 94.3839 C 149.121 93.6121 165.454 94.0452 179.999 94.1362 C 179.805 121.891 176.7 153.167 197.694 174.265 C 208.372 184.996 222.972 190.218 237.95 190.25 C 253.005 190.396 267.471 184.403 278.012 173.653 C 299.355 152.192 295.019 122.568 295.017 93.9289 z" data-c-fill="82ac57"/><path fill="#82ac57" d="M 495.141 316.761 C 502.864 319.139 535.778 355.616 542.704 363.47 C 531.376 377.64 514.154 395.28 501.539 408.655 L 445.905 468.044 L 393.185 524.258 C 372.468 546.604 358.407 562.773 335.395 583.199 C 312.398 562.826 284.69 532.827 262.842 510.23 C 248.768 496.401 225.082 473.075 213.614 457.954 C 228.811 440.426 244.674 423.486 261.169 407.173 C 286.451 431.454 310.328 457.282 335.483 481.31 C 343.452 474.893 365.859 449.857 373.848 441.635 C 403.013 411.619 431.338 380.343 460.623 350.438 C 472.759 338.046 480.997 327.077 495.141 316.761 z" data-c-fill="82ac57"/><path fill="#7ba451" d="M485.732 201.132C488.757 200.849 496.762 200.61 499.79 200.914 507.151 201.653 535.886 199.173 539.369 203.41L537.794 205.137C530.122 206.672 489.719 208.292 484.885 203.899L485.732 201.132zM581.71 106.489 583.066 107.579C587.042 116.645 585.277 146.9 584.82 157.627L582.49 156.25C579.742 151.934 580.825 113.097 581.71 106.489z" data-c-fill="7ba451"/><path fill="#47988d" d="M 1820.34 181.391 C 1821 181.296 1821.67 181.219 1822.33 181.158 C 1861.46 177.454 1906.58 193.113 1936.53 218.926 C 2003.43 276.577 2008.39 394.995 1952.55 461.692 C 1927.24 491.932 1884.09 510.92 1844.96 513.66 C 1802.58 516.627 1770.04 504.516 1738.11 477.039 L 1738.42 541.43 C 1738.43 569.167 1738.28 596.904 1737.97 624.64 C 1709.39 625.554 1676.33 624.751 1647.34 624.758 L 1647.74 186.722 L 1733.96 186.769 C 1734.07 198.127 1733.95 209.645 1733.93 221.017 C 1760.13 194.536 1783.24 185.294 1820.34 181.391 z" data-c-fill="47988d"/><path fill="#37837d" d="M 1686.26 204.556 C 1691.54 204.123 1722.42 202.976 1724.9 204.723 C 1719.86 206.927 1702.09 206.638 1695.56 206.799 C 1683.56 206.829 1671.55 206.979 1659.55 207.248 L 1659.92 206.281 C 1663.53 204.054 1680.68 204.734 1686.26 204.556 z" data-c-fill="37837d"/><path fill="#47988d" d="M 1229.72 181.374 C 1270.32 175.69 1311.34 190.977 1339.02 220.814 L 1339.02 186.588 L 1426.08 186.903 L 1425.93 624.953 C 1397.75 625.364 1364.07 625.228 1336.07 624.301 L 1336.1 568.5 L 1336.02 477.606 C 1285.27 527.648 1200.55 522.848 1145.33 483.071 C 1072.38 430.516 1063.1 312.662 1116.25 243.305 C 1146 204.479 1181.58 187.357 1229.72 181.374 z" data-c-fill="47988d"/><path fill="#37837d" d="M1347.8 308.208C1349.11 308.963 1349.34 309.378 1350.28 310.516 1351.3 317.302 1351.6 380.192 1350.66 387.306 1350.04 387.015 1349.46 386.704 1349 386.178 1346.32 383.159 1347.78 316.387 1347.8 308.208zM1419.28 203.593C1420.61 203.443 1419.99 203.484 1421.53 204.359L1420.57 205.583C1412.91 206.966 1396.63 206.855 1388.8 206.621L1389.87 206.106C1393.51 206.218 1394.92 205.918 1398.51 205.26L1392.03 205.152C1400.84 203.888 1410.37 203.791 1419.28 203.593zM1142.56 460.627C1145.78 461.784 1147.6 462.985 1147.78 466.346 1144.73 469.552 1145.05 468.723 1140.33 470.24L1139.43 470.13C1137.92 469.079 1137.88 468.737 1137.01 467.048 1138.47 463.2 1139 463.665 1142.56 460.627z" data-c-fill="37837d"/><path fill="#47988d" d="M914.724 181.422C957.567 177.165 1013.91 190.567 1051.48 211.58 1042.48 233.594 1032.73 255.295 1022.24 276.647 995.439 264.84 970.056 254.195 939.655 252.35 916.505 250.945 876.135 251.148 871.738 282.429 870.697 289.838 879.759 297.496 886.018 300.033 919.957 313.791 958.409 313.813 993.191 325.245 1034.62 337.611 1062.71 368.035 1061.05 412.966 1058.03 494.324 974.285 515.696 906.75 513.545 859.888 512.333 813.947 502.274 774.856 475.316 784.599 452.42 796.799 430.081 806.133 407.775 842.076 431.707 884.641 443.717 927.793 442.101 940.608 441.498 957.573 438.689 966.369 428.646 969.726 424.813 973.18 417.256 972.563 412.554 969.449 388.812 911.27 383.571 892.262 379.221 878.936 376.171 866.243 374.75 853.078 370.654 836.649 365.763 820.996 358.367 807.696 347.384 772.353 318.197 775.432 259.888 803.871 227.144 831.062 195.838 874.798 184.545 914.724 181.422zM1492 186.698 1582.14 186.908 1582.24 508.917C1554.53 509.367 1519.45 509.803 1491.93 508.737 1490.17 482.757 1491.62 437.342 1491.51 409.63L1492 186.698zM1530.53 43.331C1605.43 37.6703 1618.83 139.646 1543.25 146.494 1513.5 149.501 1485.95 136.532 1481.4 104.508 1479.28 90.2028 1482.93 75.6413 1491.55 64.027 1501.52 50.7887 1514.64 45.5772 1530.53 43.331z" data-c-fill="47988d"/><path fill="#82ac57" d="M510.389 26.2806C524.262 26.295 541.223 35.0329 543.552 49.8994 546.897 73.2858 544.613 97.9833 545.25 121.588 545.886 145.137 539.522 160.72 514.641 165.981 498.347 163.904 484.241 157.811 481.843 139.893 478.671 116.2 480.704 89.3787 480.102 65.4637 479.606 45.7737 490.378 30.0343 510.389 26.2806zM231.328 27.2161C274.077 24.6115 269.965 62.4941 268.983 93.2355 268.087 121.268 278.405 156.426 242.199 164.8 204.234 168.281 203.909 132.098 205.625 105.021 207.473 75.8723 195.433 38.7945 231.328 27.2161z" data-c-fill="82ac57"/><path fill="#908f8e" d="M 1051.97 707.226 C 1065.02 706.585 1074.7 707.451 1085.58 716.011 C 1094.81 723.418 1100.71 734.195 1101.98 745.961 C 1105.79 778.933 1079.05 804.129 1045.92 794.867 C 1041.16 793.536 1030.33 784.354 1027.47 784.667 L 1027.67 788.129 C 1027.91 801.412 1027.86 814.699 1027.52 827.98 L 1013.25 827.857 C 1012.18 790.426 1012.94 745.851 1013.06 707.8 C 1016.72 707.738 1022.22 707.077 1024.98 709.074 C 1027.05 711.807 1026.42 717.194 1026.38 720.874 C 1035.04 712.798 1040.34 709.795 1051.97 707.226 z" data-c-fill="908f8e"/><path fill="#908f8e" d="M 1508.02 707.178 C 1525.34 706.005 1533.06 709.827 1545.73 720.973 C 1545.73 717.278 1545.26 712.303 1547.03 709.259 C 1549.71 707.165 1554.85 707.589 1558.47 707.502 C 1558.96 747.618 1559.15 787.738 1559.05 827.857 L 1544.84 827.74 L 1545.36 804.636 L 1545.75 781.687 C 1539.19 788.338 1534.35 792.912 1524.91 795.638 C 1514.15 798.671 1502.63 797.28 1492.91 791.775 C 1482.6 785.837 1475.12 775.991 1472.16 764.466 C 1464.82 736.083 1480.16 713.862 1508.02 707.178 z" data-c-fill="908f8e"/><path fill="#908f8e" d="M 1727.22 707.275 C 1750.89 705.945 1767.65 720.563 1773.73 742.56 C 1774.92 746.835 1775.67 749.576 1773.84 753.767 C 1773.23 754.215 1772.5 754.756 1771.65 755.39 C 1752.32 756.286 1719.84 756.043 1701.57 756.44 C 1709.95 782.015 1725.82 789.22 1751.19 781.502 C 1756.28 778.721 1757.67 777.241 1761.76 773.292 L 1768.39 782.629 C 1753.5 798.972 1723.56 802.051 1706.85 788.671 C 1675.6 763.642 1685.26 713.41 1727.22 707.275 z" data-c-fill="908f8e"/><path fill="#908f8e" d="M 1369.55 707.316 C 1391.74 705.643 1408.68 720.417 1414.46 741.023 C 1415.78 745.736 1416.9 748.579 1415.03 753.36 C 1410.43 757.63 1389.81 756.012 1382.55 755.985 C 1369.28 756.025 1356 756.26 1342.74 756.691 C 1351.81 781.633 1367.76 789.883 1393.03 781.263 C 1398.31 778.028 1398.12 775.048 1404.52 774.908 C 1407.31 776.585 1406.39 775.599 1407.78 778.942 C 1407 801.734 1338.28 810.568 1330.51 758.118 C 1328.66 746.109 1331.69 733.856 1338.94 724.1 C 1347.17 713.087 1356.52 709.255 1369.55 707.316 z" data-c-fill="908f8e"/><path fill="#908f8e" d="M 1933.14 707.319 C 1964.59 705.222 1979.5 726.605 1979.88 755.747 C 1956.8 756.861 1932.23 755.413 1907.82 756.631 C 1908.49 758.479 1909.17 760.321 1909.88 762.155 C 1918.51 784.483 1939.05 789.214 1959.65 780.651 C 1962.81 778.607 1963.2 777.197 1967.28 775.186 C 1970.96 776.143 1972.27 778.668 1975.19 781.829 C 1960.74 799.329 1931.57 801.751 1913.59 788.776 C 1904.2 781.865 1897.92 771.525 1896.11 760.004 C 1891.7 733.343 1905.47 711.797 1933.14 707.319 z" data-c-fill="908f8e"/><path fill="#908f8e" d="M1229.71 671.845 1243.31 671.825C1243.81 687.446 1243.41 703.871 1243.25 719.561 1252.56 712.511 1259.6 707.507 1271.76 707.186 1316.37 706.006 1310.46 744.114 1310.51 775.167 1310.53 782.112 1310.67 789.352 1310.79 796.068L1296.87 796.178C1297 778.772 1296.99 761.366 1296.83 743.96 1293.24 719.44 1270.65 710.847 1252.48 726.67 1239.93 737.603 1244.2 778.266 1244.7 796.091L1229.99 796.168C1231.28 755.685 1229.74 712.59 1229.71 671.845zM1859.8 707.501C1864.18 707.245 1869.42 707.234 1873.88 707.122 1872.97 735.749 1873.49 767.112 1873.26 795.978L1859.21 795.741C1859.25 791.584 1859.65 786.582 1859.87 782.36 1840.14 802.241 1811 805.774 1797.19 775.57 1793.49 767.484 1794.06 757.282 1794.07 748.357 1794.14 734.876 1794.01 721.396 1793.68 707.919L1807.73 707.757C1807.81 723.463 1804.84 772.167 1815 778.041 1869.98 809.821 1859.87 721.974 1859.8 707.501z" data-c-fill="908f8e"/><path fill="url(#a)" d="M 1658.76 707.389 C 1661.79 707.125 1663.44 706.748 1666.22 707.977 C 1668.46 715.355 1666.73 783.624 1666.68 795.883 L 1653.2 795.968 C 1653.18 791.653 1653.78 786.134 1654.13 781.744 C 1653.02 782.94 1651.9 784.123 1650.76 785.293 C 1642.95 793.31 1633.63 797.213 1622.53 796.995 C 1587.62 796.311 1587.2 768.455 1587.1 743.25 L 1587.06 707.937 L 1601.14 707.857 C 1600.95 726.848 1600.28 746.999 1602.37 765.746 C 1604.01 780.492 1618.5 786.752 1631.84 784.077 C 1661.54 778.12 1650.74 739.418 1652.97 718.046 C 1653.28 715.059 1652.33 710.683 1653.96 708.231 L 1658.76 707.389 z"/><path fill="#908f8e" d="M816.026 707.334C830.169 706.983 839.87 708.365 852.443 714.489L845.635 727.116C833.465 718.401 799.537 713.261 798.471 733.336 803.544 751.558 877.841 741.892 848.758 786.96 843.514 795.087 827.85 796.368 818.91 797.082 802.63 796.633 794.22 795.409 781.1 785.434 783.263 781.863 786.034 778.176 788.486 774.755 798.526 781.396 806.581 784.445 818.745 784.381 824.367 784.351 834.404 784.572 838.23 780.205 839.911 778.286 842.642 773.313 841.809 770.833 836.445 754.862 804.936 760.059 792.874 748.663 789.23 745.638 785.629 741.025 785.444 735.893 784.721 715.787 799.775 708.967 816.026 707.334zM1168.78 687.685 1181.55 687.589 1181.93 707.77C1190.45 707.921 1199.24 707.625 1207.77 707.448L1207.6 719.104 1181.95 719.029C1181.79 735.446 1181.39 751.908 1181.72 768.318 1181.81 772.92 1182.72 780.791 1187.27 783.249 1193.46 786.594 1201.44 783.69 1207.64 781.648L1209.72 783.405C1210.45 784.642 1214.71 791.189 1212.27 792.261 1157.2 816.525 1168.18 749.126 1168.16 719.293 1161.62 719.374 1155.67 720.715 1152.2 714.137 1153.93 706.313 1162 707.547 1168.36 707.515L1168.78 687.685zM936.842 707.96 952.822 707.676C941.761 718.42 926.212 732.532 916.035 743.526 929.127 761.078 942.383 778.506 955.803 795.808L938.638 795.907C930.264 782.541 915.853 765.811 906.078 753.193 900.49 758.164 891.868 765.773 887.738 772.076 883.021 766.285 882.8 757.197 888.142 751.66 902.359 738.657 922.029 719.606 936.842 707.96z" data-c-fill="908f8e"/><path fill="#908f8e" d="M873.341 672.075 886.958 671.938C887.639 685.33 886.016 744.964 888.142 751.66 882.8 757.197 883.021 766.285 887.738 772.076 888.177 775.119 887.715 792.016 887.671 796.067L873.164 796.012C874.043 754.921 872.694 713.316 873.341 672.075zM970.491 707.888 984.239 707.897 984.166 796.218 970.257 796.274C970.54 766.813 970.619 737.351 970.491 707.888zM973.291 671.973C976.389 670.592 979.992 671.002 982.7 673.043 985.409 675.084 986.796 678.435 986.322 681.793 985.849 685.151 983.589 687.987 980.422 689.199 975.703 691.005 970.405 688.725 968.472 684.057 966.54 679.389 968.677 674.031 973.291 671.973z" data-c-fill="908f8e"/></svg><path fill="#82ac57" d="M 295.017 93.9289 C 347.153 95.1875 403.236 94.1092 455.789 94.1595 C 454.114 121.118 451.775 152.774 472.1 173.397 C 482.907 184.326 497.62 190.5 512.99 190.556 C 528.549 190.559 541.4 184.547 552.549 173.808 C 573.734 153.404 570.043 121.937 569.882 94.1748 C 604.177 94.1513 640.195 89.8228 666.385 116.634 C 693.229 144.115 689.231 176.279 689.071 211.596 L 688.965 284.499 L 689.044 571.166 C 689.502 603.658 693.868 640.039 672.288 665.968 C 660.99 679.543 640.256 692.473 622.703 693.481 C 594.438 695.104 564.284 694.367 535.881 694.312 L 378.061 694.295 L 216.309 694.269 C 187.805 694.306 157.841 695.235 129.647 693.432 C 94.3125 690.414 65.2013 661.697 63.1636 626.199 C 61.345 594.516 62.1088 563.424 62.138 531.961 L 62.1652 363.364 L 62.0094 231.751 C 62.0027 213.879 61.1503 176.642 63.3158 160.533 C 65.1979 146.055 71.1871 132.419 80.5751 121.238 C 95.1044 103.794 112.479 96.4592 134.742 94.3839 C 149.121 93.6121 165.454 94.0452 179.999 94.1362 C 179.805 121.891 176.7 153.167 197.694 174.265 C 208.372 184.996 222.972 190.218 237.95 190.25 C 253.005 190.396 267.471 184.403 278.012 173.653 C 299.355 152.192 295.019 122.568 295.017 93.9289 z" data-c-fill="82ac57"/><path fill="#82ac57" d="M 495.141 316.761 C 502.864 319.139 535.778 355.616 542.704 363.47 C 531.376 377.64 514.154 395.28 501.539 408.655 L 445.905 468.044 L 393.185 524.258 C 372.468 546.604 358.407 562.773 335.395 583.199 C 312.398 562.826 284.69 532.827 262.842 510.23 C 248.768 496.401 225.082 473.075 213.614 457.954 C 228.811 440.426 244.674 423.486 261.169 407.173 C 286.451 431.454 310.328 457.282 335.483 481.31 C 343.452 474.893 365.859 449.857 373.848 441.635 C 403.013 411.619 431.338 380.343 460.623 350.438 C 472.759 338.046 480.997 327.077 495.141 316.761 z" data-c-fill="82ac57"/><path fill="#7ba451" d="M485.732 201.132C488.757 200.849 496.762 200.61 499.79 200.914 507.151 201.653 535.886 199.173 539.369 203.41L537.794 205.137C530.122 206.672 489.719 208.292 484.885 203.899L485.732 201.132zM581.71 106.489 583.066 107.579C587.042 116.645 585.277 146.9 584.82 157.627L582.49 156.25C579.742 151.934 580.825 113.097 581.71 106.489z" data-c-fill="7ba451"/><path fill="#47988d" d="M 1820.34 181.391 C 1821 181.296 1821.67 181.219 1822.33 181.158 C 1861.46 177.454 1906.58 193.113 1936.53 218.926 C 2003.43 276.577 2008.39 394.995 1952.55 461.692 C 1927.24 491.932 1884.09 510.92 1844.96 513.66 C 1802.58 516.627 1770.04 504.516 1738.11 477.039 L 1738.42 541.43 C 1738.43 569.167 1738.28 596.904 1737.97 624.64 C 1709.39 625.554 1676.33 624.751 1647.34 624.758 L 1647.74 186.722 L 1733.96 186.769 C 1734.07 198.127 1733.95 209.645 1733.93 221.017 C 1760.13 194.536 1783.24 185.294 1820.34 181.391 z" data-c-fill="47988d"/><path fill="#37837d" d="M 1686.26 204.556 C 1691.54 204.123 1722.42 202.976 1724.9 204.723 C 1719.86 206.927 1702.09 206.638 1695.56 206.799 C 1683.56 206.829 1671.55 206.979 1659.55 207.248 L 1659.92 206.281 C 1663.53 204.054 1680.68 204.734 1686.26 204.556 z" data-c-fill="37837d"/><path fill="#47988d" d="M 1229.72 181.374 C 1270.32 175.69 1311.34 190.977 1339.02 220.814 L 1339.02 186.588 L 1426.08 186.903 L 1425.93 624.953 C 1397.75 625.364 1364.07 625.228 1336.07 624.301 L 1336.1 568.5 L 1336.02 477.606 C 1285.27 527.648 1200.55 522.848 1145.33 483.071 C 1072.38 430.516 1063.1 312.662 1116.25 243.305 C 1146 204.479 1181.58 187.357 1229.72 181.374 z" data-c-fill="47988d"/><path fill="#f0f0ef" d="M 1248.24 259.326 C 1325.38 251.553 1360.28 346.62 1318.59 403.102 C 1304.68 421.946 1287.27 431.357 1264.25 434.807 C 1244.36 436.399 1225.11 433.046 1208.91 420.773 C 1168.73 390.351 1166.99 325.58 1195.9 287.023 C 1209.42 268.978 1226.57 262.329 1248.24 259.326 z" data-c-fill="f0f0ef"/><path fill="#37837d" d="M1347.8 308.208C1349.11 308.963 1349.34 309.378 1350.28 310.516 1351.3 317.302 1351.6 380.192 1350.66 387.306 1350.04 387.015 1349.46 386.704 1349 386.178 1346.32 383.159 1347.78 316.387 1347.8 308.208zM1419.28 203.593C1420.61 203.443 1419.99 203.484 1421.53 204.359L1420.57 205.583C1412.91 206.966 1396.63 206.855 1388.8 206.621L1389.87 206.106C1393.51 206.218 1394.92 205.918 1398.51 205.26L1392.03 205.152C1400.84 203.888 1410.37 203.791 1419.28 203.593zM1142.56 460.627C1145.78 461.784 1147.6 462.985 1147.78 466.346 1144.73 469.552 1145.05 468.723 1140.33 470.24L1139.43 470.13C1137.92 469.079 1137.88 468.737 1137.01 467.048 1138.47 463.2 1139 463.665 1142.56 460.627z" data-c-fill="37837d"/><path fill="#47988d" d="M914.724 181.422C957.567 177.165 1013.91 190.567 1051.48 211.58 1042.48 233.594 1032.73 255.295 1022.24 276.647 995.439 264.84 970.056 254.195 939.655 252.35 916.505 250.945 876.135 251.148 871.738 282.429 870.697 289.838 879.759 297.496 886.018 300.033 919.957 313.791 958.409 313.813 993.191 325.245 1034.62 337.611 1062.71 368.035 1061.05 412.966 1058.03 494.324 974.285 515.696 906.75 513.545 859.888 512.333 813.947 502.274 774.856 475.316 784.599 452.42 796.799 430.081 806.133 407.775 842.076 431.707 884.641 443.717 927.793 442.101 940.608 441.498 957.573 438.689 966.369 428.646 969.726 424.813 973.18 417.256 972.563 412.554 969.449 388.812 911.27 383.571 892.262 379.221 878.936 376.171 866.243 374.75 853.078 370.654 836.649 365.763 820.996 358.367 807.696 347.384 772.353 318.197 775.432 259.888 803.871 227.144 831.062 195.838 874.798 184.545 914.724 181.422zM1492 186.698 1582.14 186.908 1582.24 508.917C1554.53 509.367 1519.45 509.803 1491.93 508.737 1490.17 482.757 1491.62 437.342 1491.51 409.63L1492 186.698zM1530.53 43.331C1605.43 37.6703 1618.83 139.646 1543.25 146.494 1513.5 149.501 1485.95 136.532 1481.4 104.508 1479.28 90.2028 1482.93 75.6413 1491.55 64.027 1501.52 50.7887 1514.64 45.5772 1530.53 43.331z" data-c-fill="47988d"/><path fill="#82ac57" d="M510.389 26.2806C524.262 26.295 541.223 35.0329 543.552 49.8994 546.897 73.2858 544.613 97.9833 545.25 121.588 545.886 145.137 539.522 160.72 514.641 165.981 498.347 163.904 484.241 157.811 481.843 139.893 478.671 116.2 480.704 89.3787 480.102 65.4637 479.606 45.7737 490.378 30.0343 510.389 26.2806zM231.328 27.2161C274.077 24.6115 269.965 62.4941 268.983 93.2355 268.087 121.268 278.405 156.426 242.199 164.8 204.234 168.281 203.909 132.098 205.625 105.021 207.473 75.8723 195.433 38.7945 231.328 27.2161z" data-c-fill="82ac57"/><path fill="#908f8e" d="M 1051.97 707.226 C 1065.02 706.585 1074.7 707.451 1085.58 716.011 C 1094.81 723.418 1100.71 734.195 1101.98 745.961 C 1105.79 778.933 1079.05 804.129 1045.92 794.867 C 1041.16 793.536 1030.33 784.354 1027.47 784.667 L 1027.67 788.129 C 1027.91 801.412 1027.86 814.699 1027.52 827.98 L 1013.25 827.857 C 1012.18 790.426 1012.94 745.851 1013.06 707.8 C 1016.72 707.738 1022.22 707.077 1024.98 709.074 C 1027.05 711.807 1026.42 717.194 1026.38 720.874 C 1035.04 712.798 1040.34 709.795 1051.97 707.226 z" data-c-fill="908f8e"/><path fill="#f0f0ef" d="M 1051.54 719.146 C 1095.82 716.959 1099.99 773.976 1064.75 783.722 C 1062.44 783.928 1060.15 783.956 1057.84 784.077 C 1027.53 785.665 1017.63 744.335 1037.86 726.174 C 1042.4 722.094 1045.92 720.831 1051.54 719.146 z" data-c-fill="f0f0ef"/><path fill="#908f8e" d="M 1508.02 707.178 C 1525.34 706.005 1533.06 709.827 1545.73 720.973 C 1545.73 717.278 1545.26 712.303 1547.03 709.259 C 1549.71 707.165 1554.85 707.589 1558.47 707.502 C 1558.96 747.618 1559.15 787.738 1559.05 827.857 L 1544.84 827.74 L 1545.36 804.636 L 1545.75 781.687 C 1539.19 788.338 1534.35 792.912 1524.91 795.638 C 1514.15 798.671 1502.63 797.28 1492.91 791.775 C 1482.6 785.837 1475.12 775.991 1472.16 764.466 C 1464.82 736.083 1480.16 713.862 1508.02 707.178 z" data-c-fill="908f8e"/><path fill="#f0f0ef" d="M 1507 720.214 C 1537.28 717.619 1552.85 736.485 1542.74 767.559 C 1540.09 775.718 1531.89 780.815 1523.98 783.649 C 1518.2 784.243 1509.48 785.194 1504.4 782.692 C 1476.36 768.873 1479.04 732.153 1507 720.214 z" data-c-fill="f0f0ef"/><path fill="#908f8e" d="M 1727.22 707.275 C 1750.89 705.945 1767.65 720.563 1773.73 742.56 C 1774.92 746.835 1775.67 749.576 1773.84 753.767 C 1773.23 754.215 1772.5 754.756 1771.65 755.39 C 1752.32 756.286 1719.84 756.043 1701.57 756.44 C 1709.95 782.015 1725.82 789.22 1751.19 781.502 C 1756.28 778.721 1757.67 777.241 1761.76 773.292 L 1768.39 782.629 C 1753.5 798.972 1723.56 802.051 1706.85 788.671 C 1675.6 763.642 1685.26 713.41 1727.22 707.275 z" data-c-fill="908f8e"/><path fill="#f0f0ef" d="M 1725.66 719.229 C 1747.52 718.468 1753.94 725.186 1761.11 745.157 L 1738.5 745.341 C 1726.26 745.393 1714.02 745.35 1701.78 745.213 C 1706.39 730.445 1710.08 723.473 1725.66 719.229 z" data-c-fill="f0f0ef"/><path fill="#908f8e" d="M 1369.55 707.316 C 1391.74 705.643 1408.68 720.417 1414.46 741.023 C 1415.78 745.736 1416.9 748.579 1415.03 753.36 C 1410.43 757.63 1389.81 756.012 1382.55 755.985 C 1369.28 756.025 1356 756.26 1342.74 756.691 C 1351.81 781.633 1367.76 789.883 1393.03 781.263 C 1398.31 778.028 1398.12 775.048 1404.52 774.908 C 1407.31 776.585 1406.39 775.599 1407.78 778.942 C 1407 801.734 1338.28 810.568 1330.51 758.118 C 1328.66 746.109 1331.69 733.856 1338.94 724.1 C 1347.17 713.087 1356.52 709.255 1369.55 707.316 z" data-c-fill="908f8e"/><path fill="#f0f0ef" d="M 1367.86 719.103 C 1388.88 718.435 1395.92 725.765 1402.46 745.196 L 1381.25 745.25 L 1343.46 745.249 C 1346.76 730.025 1352.45 722.745 1367.86 719.103 z" data-c-fill="f0f0ef"/><path fill="#908f8e" d="M 1933.14 707.319 C 1964.59 705.222 1979.5 726.605 1979.88 755.747 C 1956.8 756.861 1932.23 755.413 1907.82 756.631 C 1908.49 758.479 1909.17 760.321 1909.88 762.155 C 1918.51 784.483 1939.05 789.214 1959.65 780.651 C 1962.81 778.607 1963.2 777.197 1967.28 775.186 C 1970.96 776.143 1972.27 778.668 1975.19 781.829 C 1960.74 799.329 1931.57 801.751 1913.59 788.776 C 1904.2 781.865 1897.92 771.525 1896.11 760.004 C 1891.7 733.343 1905.47 711.797 1933.14 707.319 z" data-c-fill="908f8e"/><path fill="#f0f0ef" d="M 1934.13 719.205 C 1954.41 718.604 1961.23 726.97 1967.85 745.215 C 1959.41 745.507 1950.25 745.378 1941.75 745.426 C 1930.65 745.417 1919.55 745.34 1908.45 745.195 C 1913.24 729.312 1917.32 722.528 1934.13 719.205 z" data-c-fill="f0f0ef"/><path fill="#908f8e" d="M1229.71 671.845 1243.31 671.825C1243.81 687.446 1243.41 703.871 1243.25 719.561 1252.56 712.511 1259.6 707.507 1271.76 707.186 1316.37 706.006 1310.46 744.114 1310.51 775.167 1310.53 782.112 1310.67 789.352 1310.79 796.068L1296.87 796.178C1297 778.772 1296.99 761.366 1296.83 743.96 1293.24 719.44 1270.65 710.847 1252.48 726.67 1239.93 737.603 1244.2 778.266 1244.7 796.091L1229.99 796.168C1231.28 755.685 1229.74 712.59 1229.71 671.845zM1859.8 707.501C1864.18 707.245 1869.42 707.234 1873.88 707.122 1872.97 735.749 1873.49 767.112 1873.26 795.978L1859.21 795.741C1859.25 791.584 1859.65 786.582 1859.87 782.36 1840.14 802.241 1811 805.774 1797.19 775.57 1793.49 767.484 1794.06 757.282 1794.07 748.357 1794.14 734.876 1794.01 721.396 1793.68 707.919L1807.73 707.757C1807.81 723.463 1804.84 772.167 1815 778.041 1869.98 809.821 1859.87 721.974 1859.8 707.501z" data-c-fill="908f8e"/><path fill="url(#a)" d="M 1658.76 707.389 C 1661.79 707.125 1663.44 706.748 1666.22 707.977 C 1668.46 715.355 1666.73 783.624 1666.68 795.883 L 1653.2 795.968 C 1653.18 791.653 1653.78 786.134 1654.13 781.744 C 1653.02 782.94 1651.9 784.123 1650.76 785.293 C 1642.95 793.31 1633.63 797.213 1622.53 796.995 C 1587.62 796.311 1587.2 768.455 1587.1 743.25 L 1587.06 707.937 L 1601.14 707.857 C 1600.95 726.848 1600.28 746.999 1602.37 765.746 C 1604.01 780.492 1618.5 786.752 1631.84 784.077 C 1661.54 778.12 1650.74 739.418 1652.97 718.046 C 1653.28 715.059 1652.33 710.683 1653.96 708.231 L 1658.76 707.389 z"/><path fill="#908f8e" d="M816.026 707.334C830.169 706.983 839.87 708.365 852.443 714.489L845.635 727.116C833.465 718.401 799.537 713.261 798.471 733.336 803.544 751.558 877.841 741.892 848.758 786.96 843.514 795.087 827.85 796.368 818.91 797.082 802.63 796.633 794.22 795.409 781.1 785.434 783.263 781.863 786.034 778.176 788.486 774.755 798.526 781.396 806.581 784.445 818.745 784.381 824.367 784.351 834.404 784.572 838.23 780.205 839.911 778.286 842.642 773.313 841.809 770.833 836.445 754.862 804.936 760.059 792.874 748.663 789.23 745.638 785.629 741.025 785.444 735.893 784.721 715.787 799.775 708.967 816.026 707.334zM1168.78 687.685 1181.55 687.589 1181.93 707.77C1190.45 707.921 1199.24 707.625 1207.77 707.448L1207.6 719.104 1181.95 719.029C1181.79 735.446 1181.39 751.908 1181.72 768.318 1181.81 772.92 1182.72 780.791 1187.27 783.249 1193.46 786.594 1201.44 783.69 1207.64 781.648L1209.72 783.405C1210.45 784.642 1214.71 791.189 1212.27 792.261 1157.2 816.525 1168.18 749.126 1168.16 719.293 1161.62 719.374 1155.67 720.715 1152.2 714.137 1153.93 706.313 1162 707.547 1168.36 707.515L1168.78 687.685zM936.842 707.96 952.822 707.676C941.761 718.42 926.212 732.532 916.035 743.526 929.127 761.078 942.383 778.506 955.803 795.808L938.638 795.907C930.264 782.541 915.853 765.811 906.078 753.193 900.49 758.164 891.868 765.773 887.738 772.076 883.021 766.285 882.8 757.197 888.142 751.66 902.359 738.657 922.029 719.606 936.842 707.96z" data-c-fill="908f8e"/><path fill="#908f8e" d="M873.341 672.075 886.958 671.938C887.639 685.33 886.016 744.964 888.142 751.66 882.8 757.197 883.021 766.285 887.738 772.076 888.177 775.119 887.715 792.016 887.671 796.067L873.164 796.012C874.043 754.921 872.694 713.316 873.341 672.075zM970.491 707.888 984.239 707.897 984.166 796.218 970.257 796.274C970.54 766.813 970.619 737.351 970.491 707.888zM973.291 671.973C976.389 670.592 979.992 671.002 982.7 673.043 985.409 675.084 986.796 678.435 986.322 681.793 985.849 685.151 983.589 687.987 980.422 689.199 975.703 691.005 970.405 688.725 968.472 684.057 966.54 679.389 968.677 674.031 973.291 671.973z" data-c-fill="908f8e"/></svg>